<?xml version="1.0" encoding="utf-8"?>
<!-- Generator: Adobe Illustrator 28.3.0, SVG Export Plug-In . SVG Version: 6.00 Build 0)  -->
<svg version="1.1" id="Ebene_1" xmlns="http://www.w3.org/2000/svg" xmlns:xlink="http://www.w3.org/1999/xlink" x="0px" y="0px"
	 viewBox="0 0 250 250" style="enable-background:new 0 0 250 250;" xml:space="preserve">
<style type="text/css">
	.st0{fill:#FFFFFF;}
</style>
<path class="st0" d="M151,124.9l92.2-92.2c7-7,7-18.4,0-25.5c-7-7-18.4-7-25.5,0l-92.2,92.2L33.4,7.3c-7-7-18.4-7-25.5,0
	c-7,7-7,18.4,0,25.5l92.2,92.2L7.9,217.1c-3.5,3.5-5.3,8.1-5.3,12.7s1.8,9.2,5.3,12.7c7,7,18.4,7,25.5,0l92.2-92.2l92.2,92.2
	c3.5,3.5,8.1,5.3,12.7,5.3s9.2-1.8,12.7-5.3c7-7,7-18.4,0-25.5L151,124.9z"/>
</svg>
