<?xml version="1.0" encoding="utf-8"?>
<!-- Generator: Adobe Illustrator 28.3.0, SVG Export Plug-In . SVG Version: 6.00 Build 0)  -->
<svg version="1.1" id="Isolationsmodus" xmlns="http://www.w3.org/2000/svg" xmlns:xlink="http://www.w3.org/1999/xlink" x="0px"
	 y="0px" viewBox="0 0 39.3 32.5" style="enable-background:new 0 0 39.3 32.5;" xml:space="preserve">
<path d="M19.7,6.1c0.9-1.6,1.9-2.9,3.1-3.8c1.6-1.3,3.5-1.9,6-1.9c2.8,0,5.3,1.1,7.1,2.9c1.9,1.9,2.9,4.4,2.9,7.1
	c0,4.8-1.4,8.4-4.5,11.8c-3,3.2-7.6,6.2-14.1,9.8c-0.3,0.2-0.7,0.2-1,0c-5.8-3.5-10.4-6.5-13.6-9.7c-3.3-3.3-5-7-5-11.8
	c0-2.8,1.1-5.3,3-7.1c1.8-1.8,4.3-2.9,7.1-2.9C15,0.3,17.5,2.2,19.7,6.1L19.7,6.1z M24,3.8c-1.3,1-2.4,2.6-3.5,4.7
	c-0.1,0.2-0.2,0.4-0.4,0.5c-0.5,0.2-1,0-1.3-0.5c-2.1-4.2-4.2-6.3-8.2-6.3c-2.3,0-4.3,0.9-5.7,2.4c-1.5,1.5-2.4,3.5-2.4,5.7
	c0,4.3,1.6,7.5,4.5,10.5c2.9,3,7.3,5.8,12.7,9.2c6.1-3.4,10.4-6.2,13.2-9.2c2.8-2.9,4-6.2,4-10.4c0-2.2-0.9-4.3-2.4-5.7
	C33,3.2,31,2.3,28.8,2.3C26.7,2.3,25.2,2.8,24,3.8L24,3.8z"/>
</svg>
