<?xml version="1.0" encoding="utf-8"?>
<!-- Generator: Adobe Illustrator 28.3.0, SVG Export Plug-In . SVG Version: 6.00 Build 0)  -->
<svg version="1.1" id="Ebene_1" xmlns="http://www.w3.org/2000/svg" xmlns:xlink="http://www.w3.org/1999/xlink" x="0px" y="0px"
	 viewBox="0 0 500 176" style="enable-background:new 0 0 500 176;" xml:space="preserve">
<style type="text/css">
	.st0{fill:url(#SVGID_1_);}
	.st1{fill:#8213A4;}
	.st2{fill:#BA19AE;}
	.st3{fill:#F324BC;}
	.st4{fill:url(#SVGID_00000158747152628619282820000007868805062038258817_);}
	.st5{opacity:0.1;fill:url(#SVGID_00000112612866876424150770000008055819626582111895_);}
	.st6{opacity:0.15;fill:url(#SVGID_00000055669064934031063630000015469198393484020124_);}
	.st7{fill:#FFFFFF;}
</style>
<radialGradient id="SVGID_1_" cx="248.7734" cy="83.2587" r="69.0664" gradientTransform="matrix(1.0838 0 0 0.6709 -20.925 27.1188)" gradientUnits="userSpaceOnUse">
	<stop  offset="0" style="stop-color:#5D5C63"/>
	<stop  offset="0.1035" style="stop-color:#86868B"/>
	<stop  offset="0.2146" style="stop-color:#ABABAE"/>
	<stop  offset="0.3312" style="stop-color:#CAC9CC"/>
	<stop  offset="0.4529" style="stop-color:#E1E1E2"/>
	<stop  offset="0.582" style="stop-color:#F2F2F2"/>
	<stop  offset="0.7234" style="stop-color:#FCFCFC"/>
	<stop  offset="0.9007" style="stop-color:#FFFFFF"/>
</radialGradient>
<path class="st0" d="M504.2,179.8V82.3c0,0-16.6,0-24.9,2.1c-22.6,5.5-31.2,19.3-41.2,32.1c-24.1,31-46.8,8.9-76.7,5
	c-33.6-4.4-40.4,27.3-62.6,44c-23.1,17.4-32.1-6.8-37.8-25.5c-7.1-23.5-8.3-49.1-11.6-73.4c-2.2,35.1-12.3,93.9-60.1,84.7
	c-15.4-3.3-28-12.1-43.4-12.9c-5.1-0.9-10.2-1.4-15.4-1.6c-4.4,0-8.8,0.3-13,1.2c-4.3,0.8-8.4,2.1-12.5,3.9
	c-12,5.4-21.1,13.9-28.8,21.7c-7.6,7.6-16.5,14.8-32.4,9.1c-9-3.2-14.3-9.7-16-16.2c-4.3-16.3,4.1-34.1-5.8-49.3
	C10.1,88.9-5,88.6-5,88.6v91.2H504.2z"/>
<g>
	<g>
		<path class="st1" d="M273.8,113.3l17.3,30.4c0,0,5.5-23.9,5-32c-0.8-13-14.3-49.9-14.3-49.9L273.8,113.3z"/>
		<path class="st2" d="M226.9,105.6l-25.7,23.3c0,0,2.1-24.5,5-32c4.7-12.1,28.7-42.8,28.7-42.8L226.9,105.6z"/>
		<path class="st3" d="M257.9,13.2c4-5.3,12.1-3.5,14.3,2.8c6.6,19.2,17,53.3,13.2,70.1c-2.3,10.2-8.3,24.9-13.2,35.9
			c-3.8,8.5-6.8,14.7-6.8,14.7l-37.5-6.2c0,0-5.3-35.9-3.7-54.4c1.3-14.4,15.2-38,27-54.5C253.5,18.2,256,15.8,257.9,13.2z"/>
		<path class="st2" d="M282.3,83.4c3.8-17.1-7.8-57.7-7.8-57.7l1.9-0.1c0,0,14.2,37.1,9,60.5c-2.3,10.2-8.3,24.9-13.2,35.9
			c-3.8,8.5-6.8,14.7-6.8,14.7l-5.8-1C260.8,132.9,279.9,94.4,282.3,83.4z"/>
		<polygon class="st1" points="227.9,130.4 265.4,136.6 263.3,141.6 228.3,135.9 		"/>
		<path class="st3" d="M231.1,66.2c-2.3,14.6,7.2,28.3,21.3,30.6c14,2.3,27.2-7.6,29.5-22.2c2.3-14.6-7.2-28.3-21.3-30.6
			C246.5,41.7,233.3,51.6,231.1,66.2z"/>
		<path class="st2" d="M242.5,68.1c-1.2,8,4,15.6,11.7,16.8c7.7,1.3,15-4.2,16.2-12.2c1.2-8-4-15.6-11.7-16.8
			C251,54.6,243.7,60.1,242.5,68.1z"/>
		
			<linearGradient id="SVGID_00000160872538335549950840000010825131277886111627_" gradientUnits="userSpaceOnUse" x1="485.1138" y1="-1284.662" x2="489.0497" y2="-1306.8939" gradientTransform="matrix(0.5438 -0.8392 0.8392 0.5438 1078.7438 1183.5142)">
			<stop  offset="4.347826e-03" style="stop-color:#E2F2FF"/>
			<stop  offset="1" style="stop-color:#FFFFFF"/>
		</linearGradient>
		<path style="fill:url(#SVGID_00000160872538335549950840000010825131277886111627_);" d="M248.6,79.9c5,4.5,12.6,3.9,17-1.4
			c4.3-5.3,3.8-13.2-1.3-17.7c-5-4.5-12.6-3.9-17,1.4C243,67.5,243.5,75.4,248.6,79.9z"/>
		<g>
			
				<linearGradient id="SVGID_00000120541928684007648830000003225365005825384858_" gradientUnits="userSpaceOnUse" x1="150.3714" y1="-2239.3752" x2="167.9023" y2="-2250.4133" gradientTransform="matrix(-0.9891 -0.1468 -0.1468 0.9891 87.4382 2311.9785)">
				<stop  offset="0" style="stop-color:#FFFFFF"/>
				<stop  offset="1" style="stop-color:#1E89E8"/>
			</linearGradient>
			<path style="opacity:0.1;fill:url(#SVGID_00000120541928684007648830000003225365005825384858_);" d="M252.9,58.5l15.2,14.8
				c-0.4,1.6-1,3.1-2,4.5l-17.4-16.9C250,59.7,251.4,58.9,252.9,58.5z"/>
			
				<linearGradient id="SVGID_00000152224202123302995360000013007309878112194725_" gradientUnits="userSpaceOnUse" x1="151.5522" y1="-2241.7432" x2="172.6489" y2="-2241.7432" gradientTransform="matrix(-0.9891 -0.1468 -0.1468 0.9891 87.4382 2311.9785)">
				<stop  offset="0" style="stop-color:#FFFFFF"/>
				<stop  offset="1" style="stop-color:#1E89E8"/>
			</linearGradient>
			<path style="opacity:0.15;fill:url(#SVGID_00000152224202123302995360000013007309878112194725_);" d="M247.3,62.3
				c0.3-0.3,0.5-0.6,0.8-0.9l17.5,17c0,0-0.1,0.1-0.1,0.1c-0.5,0.6-1,1.1-1.6,1.6l-17.4-16.9C246.8,62.9,247,62.6,247.3,62.3z"/>
		</g>
		<path class="st7" d="M263.5,25.1c-4.4-0.7-8.6-2-12.3-3.6c8-11.4,15.9-19.4,15.9-19.4s5.1,10.1,9.3,23.5
			C272.3,25.9,267.9,25.8,263.5,25.1z"/>
	</g>
</g>
</svg>
