<?xml version="1.0" encoding="utf-8"?>
<!-- Generator: Adobe Illustrator 28.3.0, SVG Export Plug-In . SVG Version: 6.00 Build 0)  -->
<svg version="1.1" id="Ebene_1" xmlns="http://www.w3.org/2000/svg" xmlns:xlink="http://www.w3.org/1999/xlink" x="0px" y="0px"
	 viewBox="0 0 500 71.2" style="enable-background:new 0 0 500 71.2;" xml:space="preserve">
<style type="text/css">
	.st0{fill:#FFFFFF;}
</style>
<path class="st0" d="M-7.2-0.7v71.2c0,0,16.7,0,25.1-1.5c22.7-4.1,31.4-14.4,41.4-23.9c24.3-23,47.1-6.6,77.2-3.7
	c33.9,3.2,40.7-20.4,63-32.8c23.3-12.9,32.4,5,38,19c0.1,0.2,0.1,0.4,0.2,0.6c4,10.1,21.7,12.1,29.8,3.5c9-9.5,22.4-15.3,42.2-12.5
	c15.6,2.4,28.2,9,43.8,9.6c5.1,0.7,10.4,1.1,15.6,1.2c4.4,0,8.8-0.3,13.1-0.9c4.3-0.6,8.5-1.5,12.5-2.9c12.1-4,21.2-10.4,29-16.2
	c7.6-5.6,16.6-11,32.6-6.8c9.1,2.4,14.3,7.2,16.1,12c4.3,12.1-4.2,25.3,5.8,36.6c12.1,13.7,27.3,13.9,27.3,13.9V-0.7H-7.2z"/>
</svg>
