<?xml version="1.0" encoding="utf-8"?>
<!-- Generator: Adobe Illustrator 28.3.0, SVG Export Plug-In . SVG Version: 6.00 Build 0)  -->
<svg version="1.1" id="Ebene_1" xmlns="http://www.w3.org/2000/svg" xmlns:xlink="http://www.w3.org/1999/xlink" x="0px" y="0px"
	 viewBox="0 0 1080 73.6" style="enable-background:new 0 0 1080 73.6;" xml:space="preserve">
<style type="text/css">
	.st0{fill:#FFFFFF;}
</style>
<path class="st0" d="M835.3,6.7l43.3,60.2c0,0,32.2,6.1,46.7,4.7c38.7-3.7,53.4-12.9,70.3-21.5c41.1-20.8,80.1-6,131.1-3.4
	c57.4,2.9,69.1-18.3,107.1-29.5c39.6-11.7,55,4.6,64.5,17.1c0,0.1,0.3,0.4,0.3,0.5c6.8,8.9,36.8,11.1,50.3,3.4
	c15.3-8.7,38.1-14,72.1-11.4c26.4,2.2,47.9,8.1,74.3,8.7c8.6,0.6,17.5,1,26.4,1.1c7.4,0,15-0.2,22.1-0.8c7.4-0.5,14.4-1.4,21.5-2.6
	c20.6-3.6,35.9-9.3,49.1-14.6c12.9-5.1,28.2-9.9,55.3-6.1c15.3,2.2,24.6,6.5,27.3,10.8c7.4,11-7.1,22.9,9.8,33
	c16.9,10.3,37.5,10.8,43.3,10.7c0.9,0,1.5-0.2,1.5-0.6l1.2-58.7L884.7,6.6L835.3,6.7z"/>
<path class="st0" d="M-24.3,6.8L8.3,68c0,0,35.6,0.2,49.7-1.2c38.7-3.7,47.9-9.6,65.1-18.2c41.1-20.8,80.1-6,131.1-3.4
	c57.4,2.9,69.1-18.3,107.1-29.5c39.6-11.7,55,4.6,64.5,17.1c0,0.1,0.3,0.4,0.3,0.5c6.8,8.9,36.8,11.1,50.3,3.4
	c15.3-8.7,38.1-14,71.8-11.4c26.4,2.2,47.9,8.1,74.3,8.7c8.6,0.6,17.5,1,26.4,1.1c7.4,0,15-0.2,22.1-0.8c7.4-0.5,14.4-1.4,21.5-2.6
	c20.6-3.6,35.9-9.3,49.1-14.6c12.9-5.1,28.2-9.9,55.3-6.1c15.3,2.2,24.6,6.5,27.3,10.8c7.4,11-7.1,22.9,9.8,33
	c8.9,5.4,22.7,9,35.9,11.6c14.7,2.8,57.7,9.5,57.1,3.2L894.5,6.7H-2.8L-24.3,6.8z"/>
<path class="st0" d="M894.5,6.7L9.2,6.6l0.3,0.2"/>
<path class="st0" d="M2652.6,2.1l-901.9,0.1l-2.8,64.1c0,0.7,1.2,1,2.5,0.9c7.1-0.4,27.9-2.6,45.4-13.4c17.5-11.1,2.8-24,10.4-35.7
	c3.1-4.7,12.6-9.4,28.5-11.7c28.2-4.2,44.2,1,57.7,6.6c13.8,5.6,29.8,11.9,51.3,15.8c7.4,1.3,14.4,2.2,22.1,2.9
	c7.4,0.7,15.3,0.9,23,0.9c9.2-0.1,18.4-0.5,27.3-1.2c27.3-0.5,49.7-6.9,77.1-9.4c35.3-2.7,58.9,3,74.9,12.4
	c14.1,8.2,45.1,6,52.2-3.6c0-0.1,0.3-0.4,0.3-0.5c10.1-13.6,26.1-31.2,67.2-18.5c39.3,12.1,51.6,35.1,111.1,31.9
	c53.1-2.9,93.3-18.9,136.3,3.6c17.8,9.3,33.2,19.3,73.1,23.3c14.7,1.6,44.2,1.6,44.2,1.6v-71V2.1z"/>
<path class="st0" d="M22.1,6.8l-914.8-0.1v61.1c0,0,26.7-0.2,47.9-12.5c17.5-10.2,2.8-22.1,10.4-33c3.1-4.3,12.6-8.7,28.5-10.8
	c28.2-3.9,44.2,1,57.7,6.1c13.8,5.2,29.8,11,51.3,14.6c7.4,1.2,14.4,2,22.1,2.6c7.4,0.6,15.3,0.8,23,0.8c9.2-0.1,18.4-0.5,27.3-1.1
	c27.3-0.5,49.7-6.4,77.1-8.7c35.3-2.5,58.9,2.8,74.9,11.4c14.1,7.6,45.1,5.5,52.2-3.4c0-0.1,0.3-0.4,0.3-0.5
	c10.1-12.5,26.1-28.8,67.2-17.1c39.3,11.2,51.6,32.4,111.1,29.5c53.1-2.6,93.3-17.4,136.3,3.4c17.8,8.5,30.7,14.1,70.9,17.8
	c6.1,0.6,23.3,0.8,41.1,0.8c26.1,0.1,47-8.5,45.7-18.8L46.6,6.6L22.1,6.8z"/>
<rect x="-57.2" y="-211.2" class="st0" width="1247.6" height="220.6"/>
</svg>
