<?xml version="1.0" encoding="utf-8"?>
<!-- Generator: Adobe Illustrator 28.3.0, SVG Export Plug-In . SVG Version: 6.00 Build 0)  -->
<svg version="1.1" id="Ebene_1" xmlns="http://www.w3.org/2000/svg" xmlns:xlink="http://www.w3.org/1999/xlink" x="0px" y="0px"
	 viewBox="0 0 1080 100" style="enable-background:new 0 0 1080 100;" xml:space="preserve">
<style type="text/css">
	.st0{fill:#FFFFFF;}
	.st1{fill:#8213A4;}
	.st2{fill:#BA19AE;}
	.st3{fill:#F324BC;}
	.st4{fill:url(#SVGID_1_);}
	.st5{opacity:0.1;fill:url(#SVGID_00000032614488644057144510000004055133779843921310_);enable-background:new    ;}
	.st6{opacity:0.15;fill:url(#SVGID_00000146498515884736782850000014842040765530037907_);enable-background:new    ;}
</style>
<path class="st0" d="M249.6,89.6l-43.3-60.2c0,0-32.2-6.1-46.7-4.7c-38.7,3.7-53.4,12.9-70.3,21.5c-41.1,20.8-80.1,6-131.1,3.4
	c-57.4-2.9-69.1,18.3-107.1,29.5c-39.6,11.7-55-4.6-64.5-17.1c0-0.1-0.3-0.4-0.3-0.5c-6.8-8.9-36.8-11.1-50.3-3.4
	c-15.3,8.7-38.1,14-72.1,11.4c-26.4-2.2-47.9-8.1-74.3-8.7c-8.6-0.6-17.5-1-26.4-1.1c-7.4,0-15,0.2-22.1,0.8
	c-7.4,0.5-14.4,1.4-21.5,2.6c-20.6,3.6-35.9,9.3-49.1,14.6c-12.9,5.1-28.2,9.9-55.3,6.1c-15.3-2.2-24.6-6.5-27.3-10.8
	c-7.4-11,7.1-22.9-9.8-33c-16.9-10.3-37.5-10.8-43.3-10.7c-0.9,0-1.5,0.2-1.5,0.6l-1.2,58.7l868.2,0.8L249.6,89.6z"/>
<path class="st0" d="M1109.2,89.5l-32.5-61.2c0,0-35.6-0.2-49.7,1.2c-38.7,3.7-47.9,9.6-65.1,18.2c-41.1,20.8-80.1,6-131.1,3.4
	c-57.4-2.9-69.1,18.3-107.1,29.5c-26.4,7.8-56.6,9.2-77.1,7.1c-11.8-1.2-20.9-9.7-19.9-21.5l0,0c-6.8-8.9-6.1,9.4-19.6,17.1
	c-15.3,8.7-36.7-9.7-70.4-12.2c-26.4-2.2-47.9-8.1-74.3-8.7c-8.6-0.6-17.5-1-26.4-1.1c-7.4,0-15,0.2-22.1,0.8
	c-7.4,0.5-14.4,1.4-21.5,2.6c-20.6,3.6-35.9,9.3-49.1,14.6c-12.9,5.1-28.2,9.9-55.3,6.1c-15.3-2.2-24.6-6.5-27.3-10.8
	c-7.4-11,7.1-22.9-9.8-33c-8.9-5.4-22.7-9-35.9-11.6c-14.7-2.8-57.7-9.5-57.1-3.2l32.5,62.8h897.3L1109.2,89.5z"/>
<path class="st0" d="M190.3,89.6l885.3,0.1l-0.3-0.2"/>
<path class="st0" d="M-1567.8,94.2l901.9-0.1l2.8-64.1c0-0.7-1.2-1-2.5-0.9c-7.1,0.4-27.9,2.6-45.4,13.4
	c-17.5,11.1-2.8,24-10.4,35.7c-3.1,4.7-12.6,9.4-28.5,11.7c-28.2,4.2-44.2-1-57.7-6.6c-13.8-5.6-29.8-11.9-51.3-15.8
	c-7.4-1.3-14.4-2.2-22.1-2.9c-7.4-0.7-15.3-0.9-23-0.9c-9.2,0.1-18.4,0.5-27.3,1.2c-27.3,0.5-49.7,6.9-77.1,9.4
	c-35.3,2.7-58.9-3-74.9-12.4c-14.1-8.2-45.1-6-52.2,3.6c0,0.1-0.3,0.4-0.3,0.5c-10.1,13.6-26.1,31.2-67.2,18.5
	c-39.3-12.1-51.6-35.1-111.1-31.9c-53.1,2.9-93.3,18.9-136.3-3.6c-17.8-9.3-33.2-19.3-73.1-23.3c-14.7-1.6-44.2-1.6-44.2-1.6v71
	V94.2z"/>
<path class="st0" d="M1062.8,89.5l914.8,0.1V28.5c0,0-26.7,0.2-47.9,12.5c-17.5,10.2-2.8,22.1-10.4,33c-3.1,4.3-12.6,8.7-28.5,10.8
	c-28.2,3.9-44.2-1-57.7-6.1c-13.8-5.2-29.8-11-51.3-14.6c-7.4-1.2-14.4-2-22.1-2.6c-7.4-0.6-15.3-0.8-23-0.8
	c-9.2,0.1-18.4,0.5-27.3,1.1c-27.3,0.5-49.7,6.4-77.1,8.7c-35.3,2.5-58.9-2.8-74.9-11.4c-14.1-7.6-45.1-5.5-52.2,3.4
	c0,0.1-0.3,0.4-0.3,0.5c-10.1,12.5-26.1,28.8-67.2,17.1c-39.3-11.2-51.6-32.4-111.1-29.5c-53.1,2.6-93.3,17.4-136.3-3.4
	c-17.8-8.5-30.7-14.1-70.9-17.8c-6.1-0.6-23.3-0.8-41.1-0.8c-26.1-0.1-47,8.5-45.7,18.8l5.8,42.6L1062.8,89.5z"/>
<rect x="-105.5" y="86.9" transform="matrix(-1 -1.224647e-16 1.224647e-16 -1 1036.5184 394.4381)" class="st0" width="1247.6" height="220.6"/>
<g>
	<g>
		<path class="st1" d="M638.7,63.3l9.6,16.9c0,0,3.1-13.3,2.8-17.8c-0.4-7.2-8-27.8-8-27.8L638.7,63.3z"/>
		<path class="st2" d="M612.6,59.1l-14.3,13c0,0,1.2-13.6,2.8-17.8c2.6-6.7,16-23.8,16-23.8L612.6,59.1z"/>
		<path class="st3" d="M629.8,7.6c2.2-3,6.7-1.9,8,1.6c3.7,10.7,9.5,29.7,7.3,39c-1.3,5.7-4.6,13.9-7.3,20c-2.1,4.7-3.8,8.2-3.8,8.2
			l-20.9-3.5c0,0-3-20-2.1-30.3c0.7-8,8.5-21.2,15-30.3C627.4,10.4,628.8,9.1,629.8,7.6z"/>
		<path class="st2" d="M643.4,46.7c2.1-9.5-4.3-32.1-4.3-32.1l1.1-0.1c0,0,7.9,20.7,5,33.7c-1.3,5.7-4.6,13.9-7.3,20
			c-2.1,4.7-3.8,8.2-3.8,8.2l-3.2-0.6C631.5,74.3,642.1,52.8,643.4,46.7z"/>
		<polygon class="st1" points="613.1,72.9 634,76.3 632.9,79.1 613.4,75.9 		"/>
		<path class="st3" d="M614.9,37.1c-1.3,8.1,4,15.8,11.9,17c7.8,1.3,15.1-4.2,16.4-12.4c1.3-8.1-4-15.8-11.9-17
			C623.5,23.5,616.2,29,614.9,37.1z"/>
		<path class="st2" d="M621.3,38.2c-0.7,4.5,2.2,8.7,6.5,9.4c4.3,0.7,8.4-2.3,9-6.8s-2.2-8.7-6.5-9.4S621.9,33.7,621.3,38.2z"/>
		
			<linearGradient id="SVGID_1_" gradientUnits="userSpaceOnUse" x1="816.3167" y1="1356.6447" x2="818.5081" y2="1369.0226" gradientTransform="matrix(0.5438 -0.8392 -0.8392 -0.5438 1328.1467 1466.3096)">
			<stop  offset="4.347826e-03" style="stop-color:#E2F2FF"/>
			<stop  offset="1" style="stop-color:#FFFFFF"/>
		</linearGradient>
		<path class="st4" d="M624.7,44.7c2.8,2.5,7,2.2,9.5-0.8c2.4-3,2.1-7.3-0.7-9.9c-2.8-2.5-7-2.2-9.5,0.8
			C621.6,37.8,621.8,42.2,624.7,44.7z"/>
		<g>
			
				<linearGradient id="SVGID_00000145759026155395248120000003980272453931430808_" gradientUnits="userSpaceOnUse" x1="364.851" y1="2385.6941" x2="374.6117" y2="2391.8398" gradientTransform="matrix(-0.9891 -0.1468 0.1468 -0.9891 645.8611 2455.1821)">
				<stop  offset="0" style="stop-color:#FFFFFF"/>
				<stop  offset="1" style="stop-color:#1E89E8"/>
			</linearGradient>
			<path style="opacity:0.1;fill:url(#SVGID_00000145759026155395248120000003980272453931430808_);enable-background:new    ;" d="
				M627.1,32.8l8.5,8.2c-0.2,0.9-0.6,1.7-1.1,2.5l-9.7-9.4C625.5,33.5,626.2,33.1,627.1,32.8z"/>
			
				<linearGradient id="SVGID_00000052805186902449478950000011442922857229048202_" gradientUnits="userSpaceOnUse" x1="365.5435" y1="2386.989" x2="377.2894" y2="2386.989" gradientTransform="matrix(-0.9891 -0.1468 0.1468 -0.9891 645.8611 2455.1821)">
				<stop  offset="0" style="stop-color:#FFFFFF"/>
				<stop  offset="1" style="stop-color:#1E89E8"/>
			</linearGradient>
			
				<path style="opacity:0.15;fill:url(#SVGID_00000052805186902449478950000011442922857229048202_);enable-background:new    ;" d="
				M623.9,34.9c0.2-0.2,0.3-0.3,0.4-0.5l9.7,9.5l-0.1,0.1c-0.3,0.3-0.6,0.6-0.9,0.9l-9.7-9.4C623.7,35.3,623.8,35.1,623.9,34.9z"/>
		</g>
		<path class="st0" d="M633,14.2c-2.4-0.4-4.8-1.1-6.8-2c4.5-6.3,8.9-10.8,8.9-10.8s2.8,5.6,5.2,13.1
			C637.9,14.7,635.4,14.6,633,14.2z"/>
	</g>
</g>
</svg>
